<?xml version="1.0" encoding="UTF-8" standalone="no"?>
<!-- Created with Inkscape (http://www.inkscape.org/) -->

<svg
   xmlns:dc="http://purl.org/dc/elements/1.1/"
   xmlns:cc="http://creativecommons.org/ns#"
   xmlns:rdf="http://www.w3.org/1999/02/22-rdf-syntax-ns#"
   xmlns:svg="http://www.w3.org/2000/svg"
   xmlns="http://www.w3.org/2000/svg"
   xmlns:sodipodi="http://sodipodi.sourceforge.net/DTD/sodipodi-0.dtd"
   xmlns:inkscape="http://www.inkscape.org/namespaces/inkscape"
   width="744.09448819"
   height="1052.3622047"
   id="svg2"
   version="1.1"
   inkscape:version="0.47 r22583"
   sodipodi:docname="mirah-ambigram.svg">
  <defs
     id="defs4">
    <inkscape:perspective
       sodipodi:type="inkscape:persp3d"
       inkscape:vp_x="0 : 526.18109 : 1"
       inkscape:vp_y="0 : 1000 : 0"
       inkscape:vp_z="744.09448 : 526.18109 : 1"
       inkscape:persp3d-origin="372.04724 : 350.78739 : 1"
       id="perspective10" />
    <inkscape:perspective
       id="perspective2873"
       inkscape:persp3d-origin="0.5 : 0.33333333 : 1"
       inkscape:vp_z="1 : 0.5 : 1"
       inkscape:vp_y="0 : 1000 : 0"
       inkscape:vp_x="0 : 0.5 : 1"
       sodipodi:type="inkscape:persp3d" />
  </defs>
  <sodipodi:namedview
     id="base"
     pagecolor="#ffffff"
     bordercolor="#666666"
     borderopacity="1.0"
     inkscape:pageopacity="0.0"
     inkscape:pageshadow="2"
     inkscape:zoom="2.8"
     inkscape:cx="475.10254"
     inkscape:cy="764.8506"
     inkscape:document-units="px"
     inkscape:current-layer="layer1"
     showgrid="true"
     inkscape:snap-grids="true"
     inkscape:window-width="1436"
     inkscape:window-height="856"
     inkscape:window-x="4"
     inkscape:window-y="0"
     inkscape:window-maximized="0">
    <inkscape:grid
       type="xygrid"
       id="grid2850" />
  </sodipodi:namedview>
  <metadata
     id="metadata7">
    <rdf:RDF>
      <cc:Work
         rdf:about="">
        <dc:format>image/svg+xml</dc:format>
        <dc:type
           rdf:resource="http://purl.org/dc/dcmitype/StillImage" />
        <dc:title />
      </cc:Work>
    </rdf:RDF>
  </metadata>
  <g
     inkscape:label="Layer 1"
     inkscape:groupmode="layer"
     id="layer1">
    <path
       style="fill:none;stroke:#000000;stroke-width:1px;stroke-linecap:butt;stroke-linejoin:miter;stroke-opacity:1"
       d="m 40,467.36218 c 0,0 15,-20 15,-75 5,55 55,55 60,0 0,105 30,125 30,125 -35,0 -35,-80 -35,-80 -10,35 -40,35 -50,0 0,0 -0.0618,30 -20,30 z"
       id="path2848"
       sodipodi:nodetypes="cccsssz" />
    <path
       sodipodi:nodetypes="csssssssz"
       id="path2879"
       d="m 530,457.36218 c 0,0 -15,5 -15,85 0,20 -10,20 -10,0 0,-105 -40,-105 -40,0 -0.01,20 -10,20 -10,0 0,-115 -30,-135 -30,-135 30,0 35,75 35,75 10,-35 40,-35 50,0 0,0 0.0618,-25 20,-25 z"
       style="fill:none;stroke:#000000;stroke-width:1px;stroke-linecap:butt;stroke-linejoin:miter;stroke-opacity:1" />
    <path
       style="fill:#000000;stroke:#000000;stroke-width:1px;stroke-linecap:butt;stroke-linejoin:miter;stroke-opacity:1"
       d="m 80,787.36218 0,-80 c 0,0 10,0 10,0 0,50 -4.26703,70 20,70 20,0 20,-13.21428 20,-45 0,-30 -35,-15 -35,-15 20,-20 40,0 40,0 10,-10 31.83772,-4.48683 35,5 5,15 -20,10 -10,0 0,0 -12.15535,-11.76697 -20,0 -10,15 15,85 -50,60 0,0 0,5 0,5 l -10,0 z"
       id="path2881"
       sodipodi:nodetypes="cczszzsssszcc" />
    <path
       sodipodi:nodetypes="cccsssz"
       id="path2883"
       d="m 160,517.36218 c 0,0 15,-20 15,-75 15,60 45,60 60,0 0,105 30,125 30,125 -35,0 -35,-80 -35,-80 -10,35 -40,35 -50,0 0,0 -0.0618,30 -20,30 z"
       style="fill:none;stroke:#000000;stroke-width:1px;stroke-linecap:butt;stroke-linejoin:miter;stroke-opacity:1" />
    <path
       style="fill:none;stroke:#000000;stroke-width:1px;stroke-linecap:butt;stroke-linejoin:miter;stroke-opacity:1"
       d="m 305,752.36218 c 0,0 15,-20 15,-75 15,60 45,60 60,0 0,105 5,125 5,125 -15,0 -15,-80 -15,-80 -10,35 -45,35 -45,0 0,0 0,30 -20,30 z"
       id="path2885"
       sodipodi:nodetypes="cccsssz" />
    <path
       sodipodi:nodetypes="cccsssz"
       id="path2887"
       d="m 350,517.36218 c 0,0 15,-20 15,-75 15,60 45,60 60,0 0,105 30,125 30,125 -40,0 -35,-80 -35,-80 0,35 -50,35 -50,0 0,0 5,30 -20,30 z"
       style="fill:none;stroke:#000000;stroke-width:1px;stroke-linecap:butt;stroke-linejoin:miter;stroke-opacity:1" />
    <path
       sodipodi:nodetypes="cczzcccsz"
       id="path2889"
       d="m 510,822.36218 c 0,0 -15,20 -15,75 0,0 -10,0 -10,0 0,-95 -45,-70 -45,0 0,0 -10,0 -10,0 0,-105 0,-125 0,-125 15,20 10,60 10,85 0,-45 50,-40 50,-10 0,0 5,-25 20,-25 z"
       style="fill:#000000;stroke:#000000;stroke-width:1px;stroke-linecap:butt;stroke-linejoin:miter;stroke-opacity:1" />
    <path
       sodipodi:nodetypes="cczszzsssszcc"
       id="path2891"
       d="m 510,572.36218 0,80 c 0,0 -10,0 -10,0 0,-50 4.26703,-70 -20,-70 -15,0 -10,30 -10,50 0,20 25,15 25,15 -15,10 -30,0 -30,0 -10,10 -31.83772,4.48683 -35,-5 -5,-15 20,-10 10,0 0,0 5,10 15,0 19.00292,-19.00293 -20,-90 45,-65 0,0 0,-5 0,-5 l 10,0 z"
       style="fill:none;stroke:#000000;stroke-width:1px;stroke-linecap:butt;stroke-linejoin:miter;stroke-opacity:1"
       inkscape:transform-center-x="-14.665559" />
    <path
       sodipodi:nodetypes="cczszzsssszcc"
       id="path2893"
       d="m 485.66888,617.23408 0,80 c 0,0 -10,0 -10,0 0,-50 4.26703,-70 -20,-70 -15,0 -10,30 -10,50 0,20 25,10 25,10 -20,20 -30,5 -30,5 -10,10 -31.83772,4.48683 -35,-5 -5,-15 20,-10 10,0 0,0 5,10 15,0 19.00292,-19.00293 -20,-90 45,-65 0,0 0,-5 0,-5 l 10,0 z"
       style="fill:none;stroke:#000000;stroke-width:1px;stroke-linecap:butt;stroke-linejoin:miter;stroke-opacity:1" />
    <path
       sodipodi:nodetypes="cczszzsssszcc"
       id="path2895"
       d="m 305,572.36218 0,80 c 0,0 -10,0 -10,0 0,-50 4.26703,-70 -20,-70 -15,0 -10,30 -10,50 0,20 25,10 25,10 -20,20 -30,5 -30,5 -10,10 -31.83772,4.48683 -35,-5 -5,-15 20,-10 10,0 0,0 5,10 15,0 19.00292,-19.00293 -20,-90 45,-65 0,0 0,-5 0,-5 l 10,0 z"
       style="fill:#000000;stroke:#000000;stroke-width:1px;stroke-linecap:butt;stroke-linejoin:miter;stroke-opacity:1" />
    <path
       style="fill:none;stroke:#000000;stroke-width:1px;stroke-linecap:butt;stroke-linejoin:miter;stroke-opacity:1"
       d="m 215,752.36218 c 0,0 15,-20 15,-75 0,0 10,0 10,0 0,95 45,70 45,0 0,0 10,0 10,0 0,105 0,125 0,125 -15,-20 -10,-71.77464 -10,-95 0,60 -50,60 -50,0 0,0 5,45 -20,45 z"
       id="path2897"
       sodipodi:nodetypes="cczzcccsz" />
    <path
       style="fill:#000000;stroke:#000000;stroke-width:1px;stroke-linecap:butt;stroke-linejoin:miter;stroke-opacity:1"
       d="m 190,1037.3622 c 0,0 15,-20 15,-70.00002 0,-10 8.58579,-9.89949 10,0 10,70.00002 30,70.00002 40,0 1.41421,-9.89949 10,-10 10,0 0,40.13862 0,115.00002 0,115.00002 -10,0 -5,-70 -5,-95.00002 -15,55.00002 -35,55.00002 -50,0 0,0 0,50.00002 -20,50.00002 z"
       id="path2901"
       sodipodi:nodetypes="cssssccsz" />
    <path
       sodipodi:nodetypes="cczszzsssszcc"
       id="path2935"
       d="m 415,962.36218 0,80.00002 c 0,0 -10,0 -10,0 0,-50.00002 4.26703,-70.00002 -20,-70.00002 -20,0 -20,18.21429 -20,45.00002 0,25 35,15 35,15 -20,25 -40,0 -40,0 -10,10 -31.83772,4.4868 -35,-5 -5,-15 20,-10 10,0 0,0 10,20 20,0 8.06226,-16.1245 -15,-85.00002 50,-60.00002 0,0 0,-5 0,-5 l 10,0 z"
       style="fill:#000000;stroke:#000000;stroke-width:1px;stroke-linecap:butt;stroke-linejoin:miter;stroke-opacity:1" />
    <path
       style="fill:#000000;stroke:#000000;stroke-width:1px;stroke-linecap:butt;stroke-linejoin:miter;stroke-opacity:1"
       d="m 485,497.36218 c 0,0 0,-80 0,-80 0,0 10.83045,0.0346 10,10 -5,60 -4.26703,65 20,65 20,0 20,-23.29718 20,-50 0,-25 -35,-15 -35,-15 20,-25 40,0 40,0 10,-10 31.83772,-4.48683 35,5 5,15 -20,10 -10,0 0,0 -10,-20 -20,0 -8.06226,16.12452 15,85 -50,60 0,0 0,5 -10,5 z"
       id="path2937"
       sodipodi:nodetypes="ccsszzsssscz" />
    <path
       sodipodi:nodetypes="cssssccsz"
       id="path2939"
       d="m 510,907.36218 c 0,0 -15,20 -15,70 0,10 -10,10 -10,0 0,-80 -25,-70 -40,0 -2.09529,9.77802 -10,10 -10,0 0,-40.13865 0,-115 0,-115 10,-10e-6 10,70 10,95 15,-60 40,-75 50,10 0,0 -5,-60.00001 15,-60 z"
       style="fill:#000000;stroke:#000000;stroke-width:1px;stroke-linecap:butt;stroke-linejoin:miter;stroke-opacity:1" />
    <path
       style="fill:#000000;stroke:#000000;stroke-width:1px;stroke-linecap:butt;stroke-linejoin:miter;stroke-opacity:1"
       d="m 345,332.36218 c 0,0 15,-30 15,-80 0,0 10.71247,0.0255 10,10 -5,70 40,60 40,0 0,0 0,-10 10,-10 0,0 0,125 0,125 -10,10e-6 -10,-70 -10,-95 -10,65 -40,70 -50,-10 0,0 5,60.00001 -15,60 z"
       id="path2941"
       sodipodi:nodetypes="cssssccsz" />
    <path
       sodipodi:nodetypes="cssssccsz"
       id="path2945"
       d="m 465,937.36218 c 0,0 -15,30 -15,80.00002 0,0 -10,0 -10,-10 0,-80.00002 -25,-70.00002 -40,0 0,0 0,10 -10,10 0,0 0,-125.00002 0,-125.00002 10,-10e-6 10,70 10,95 15,-60 40,-75 50,10 0,0 -5,-60.00001 15,-60 z"
       style="fill:#000000;stroke:#000000;stroke-width:1px;stroke-linecap:butt;stroke-linejoin:miter;stroke-opacity:1" />
    <path
       sodipodi:nodetypes="ccsszzsssscz"
       id="path2947"
       d="m 345,957.36218 c 0,0 0,80.00002 0,80.00002 0,0 -11.10432,-0.061 -10,-10 5,-45.00002 4.26703,-60.00002 -20,-60.00002 -20,0 -20,18.21429 -20,45.00002 0,25 35,15 35,15 -20,25 -40,0 -40,0 -10,10 -31.83772,4.4868 -35,-5 -5,-15 20,-10 10,0 0,0 10,20 20,0 8.06226,-16.1245 -15,-85.00002 50,-60.00002 0,0 0,-5 10,-5 z"
       style="fill:#000000;stroke:#000000;stroke-width:1px;stroke-linecap:butt;stroke-linejoin:miter;stroke-opacity:1" />
    <path
       sodipodi:nodetypes="cssssccsz"
       id="path2949"
       d="m 150.18008,997.75336 c 0,0 -15.31137,29.84224 -15.83168,79.83964 0,0 -10.68393,-0.1348 -9.8954,-10.1036 5.547,-70.12722 -39.373465,-60.413 -39.997832,-0.4162 0,0 -0.104061,9.9994 -10.10352,9.8954 0,0 1.300765,-124.99327 1.300765,-124.99327 9.999458,0.10407 9.27103,70.10027 9.010877,95.09897 10.675856,-64.89247 40.72626,-69.58001 49.89323,10.5197 0,0 -4.37536,-60.04877 15.62356,-59.84064 z"
       style="fill:#000000;stroke:#000000;stroke-width:1px;stroke-linecap:butt;stroke-linejoin:miter;stroke-opacity:1" />
    <path
       sodipodi:nodetypes="ccsszzsssscz"
       id="path2951"
       d="m 430,332.36218 c 0,0 0,-80 0,-80 0,0 11.10432,0.0612 10,10 -5,45 -9.26703,65 15,65 20,0 29.86567,-35.53731 25,-55 -4.86567,-19.46269 -35,-10 -35,-10 20,-25 40,0 40,0 10,-10 31.83772,-4.48683 35,5 5,15 -20,10 -10,0 0,0 -10,-20 -20,0 -8.06226,16.12452 15,85 -50,60 0,0 0,5 -10,5 z"
       style="fill:#000000;stroke:#000000;stroke-width:1px;stroke-linecap:butt;stroke-linejoin:miter;stroke-opacity:1" />
    <path
       sodipodi:nodetypes="cssssccsz"
       id="path2953"
       d="m 670,252.36218 c 0,0 -15,30 -15,80 0,0 -10.71247,-0.0255 -10,-10 5,-70 -40,-60 -40,0 0,0 0,10 -10,10 0,0 0,-125 0,-125 10,-1e-5 10,70 10,95 10,-65 40,-70 50,10 0,0 -5,-60.00001 15,-60 z"
       style="fill:#000000;stroke:#000000;stroke-width:1px;stroke-linecap:butt;stroke-linejoin:miter;stroke-opacity:1" />
    <path
       sodipodi:nodetypes="ccsszzsssscz"
       id="path2955"
       d="m 700,402.36218 c 0,0 0,80 0,80 0,0 -10.83045,-0.0346 -10,-10 5,-60 4.26703,-65 -20,-65 -20,0 -20,23.29718 -20,50 0,25 35,15 35,15 -20,25 -40,0 -40,0 -10,10 -31.83772,4.48683 -35,-5 -5,-15 20,-10 10,0 0,0 10,20 20,0 8.06226,-16.12452 -15,-85 50,-60 0,0 0,-5 10,-5 z"
       style="fill:#000000;stroke:#000000;stroke-width:1px;stroke-linecap:butt;stroke-linejoin:miter;stroke-opacity:1" />
    <path
       style="fill:#000000;stroke:#000000;stroke-width:1px;stroke-linecap:butt;stroke-linejoin:miter;stroke-opacity:1"
       d="m 585,252.36218 c 0,0 0,80 0,80 0,0 -11.10432,-0.0612 -10,-10 5,-45 9.26703,-65 -15,-65 -20,0 -29.86567,35.53731 -25,55 4.86567,19.46269 35,10 35,10 -20,25 -40,0 -40,0 -10,10 -31.83772,4.48683 -35,-5 -5,-15 20,-10 10,0 0,0 10,20 20,0 8.06226,-16.12452 -15,-85 50,-60 0,0 0,-5 10,-5 z"
       id="path2849"
       sodipodi:nodetypes="ccsszzsssscz" />
    <path
       style="fill:#000000;stroke:#000000;stroke-width:1px;stroke-linecap:butt;stroke-linejoin:miter;stroke-opacity:1"
       d="m 430,232.36218 c 0,0 5.58734,-14.41266 10,-10 5,5 -10,10 -10,10 z"
       id="path2850"
       sodipodi:nodetypes="czc" />
    <path
       sodipodi:nodetypes="czc"
       id="path2852"
       d="m 585,352.36218 c 0,0 -5.58734,14.41266 -10,10 -5,-5 10,-10 10,-10 z"
       style="fill:#000000;stroke:#000000;stroke-width:1px;stroke-linecap:butt;stroke-linejoin:miter;stroke-opacity:1" />
  </g>
</svg>
