<?xml version="1.0" encoding="UTF-8" standalone="no"?>
<!-- Created with Inkscape (http://www.inkscape.org/) -->

<svg
   xmlns:svg="http://www.w3.org/2000/svg"
   xmlns="http://www.w3.org/2000/svg"
   version="1.1"
   width="744.09448"
   height="1052.3622"
   id="svg2">
  <defs
     id="defs4" />
  <g
     id="layer2" />
  <g
     id="layer1">
    <path
       d="m 180,562.36218 a 5,5 0 1 1 -10,0 5,5 0 1 1 10,0 z"
       transform="translate(181.71318,-388.93908)"
       id="path2908"
       style="fill:#0066ff;fill-opacity:1;stroke:#0066ff;stroke-opacity:1" />
    <path
       d="m 180,562.36218 a 5,5 0 1 1 -10,0 5,5 0 1 1 10,0 z"
       transform="translate(326.71318,-258.93908)"
       id="path2910"
       style="fill:#0066ff;fill-opacity:1;stroke:#0066ff;stroke-opacity:1" />
    <path
       d="m 266.71318,278.4231 c 0,0 15,-30 15,-80 0,0 10.62102,0.0194 10,10 -5,80 40,60 40,0 0,0 0,-10 10,-10 0,0 0,125 0,125 -10,1e-5 -10,-70 -10,-95 -10,65 -40,70 -50,-10 0,0 5,60.00001 -15,60 z"
       id="path2941"
       style="fill:#0066ff;stroke:#0066ff;stroke-width:1px;stroke-linecap:butt;stroke-linejoin:miter;stroke-opacity:1" />
    <path
       d="m 351.71318,278.4231 c 0,0 0,-80 0,-80 0,0 11.10432,0.0612 10,10 -5,45 -9.26703,65 15,65 20,0 29.86567,-35.53731 25,-55 -4.86567,-19.46269 -35,-10 -35,-10 20,-25 40,0 40,0 10,-10 31.83772,-4.48683 35,5 5,15 -20,10 -10,0 0,0 -10,-20 -20,0 -8.06226,16.12452 15,85 -50,60 0,0 0,5 -10,5 z"
       id="path2951"
       style="fill:#0066ff;stroke:#0066ff;stroke-width:1px;stroke-linecap:butt;stroke-linejoin:miter;stroke-opacity:1" />
    <path
       d="m 591.71318,198.4231 c 0,0 -15,30 -15,80 0,0 -10.62378,-0.0196 -10,-10 5,-80 -40,-60 -40,0 0,0 0,10 -10,10 0,0 0,-125 0,-125 10,-1e-5 10,70 10,95 10,-65 40,-70 50,10 0,0 -5,-60.00001 15,-60 z"
       id="path2953"
       style="fill:#0066ff;stroke:#0066ff;stroke-width:1px;stroke-linecap:butt;stroke-linejoin:miter;stroke-opacity:1" />
    <path
       d="m 506.71318,198.4231 c 0,0 0,80 0,80 0,0 -11.10432,-0.0612 -10,-10 5,-45 9.26703,-65 -15,-65 -20,0 -29.86567,35.53731 -25,55 4.86567,19.46269 35,10 35,10 -20,25 -40,0 -40,0 -10,10 -31.83772,4.48683 -35,-5 -5,-15 20,-10 10,0 0,0 10,20 20,0 8.06226,-16.12452 -15,-85 50,-60 0,0 0,-5 10,-5 z"
       id="path2849"
       style="fill:#0066ff;stroke:#0066ff;stroke-width:1px;stroke-linecap:butt;stroke-linejoin:miter;stroke-opacity:1" />
  </g>
</svg>
