<?xml version="1.0" encoding="UTF-8" standalone="no"?>
<!-- Created with Inkscape (http://www.inkscape.org/) -->

<svg
   xmlns:dc="http://purl.org/dc/elements/1.1/"
   xmlns:cc="http://creativecommons.org/ns#"
   xmlns:rdf="http://www.w3.org/1999/02/22-rdf-syntax-ns#"
   xmlns:svg="http://www.w3.org/2000/svg"
   xmlns="http://www.w3.org/2000/svg"
   xmlns:sodipodi="http://sodipodi.sourceforge.net/DTD/sodipodi-0.dtd"
   xmlns:inkscape="http://www.inkscape.org/namespaces/inkscape"
   width="744.09448819"
   height="1052.3622047"
   id="svg2"
   version="1.1"
   inkscape:version="0.47 r22583"
   sodipodi:docname="mirah-ambigram2.svg">
  <defs
     id="defs4">
    <inkscape:perspective
       sodipodi:type="inkscape:persp3d"
       inkscape:vp_x="0 : 526.18109 : 1"
       inkscape:vp_y="0 : 1000 : 0"
       inkscape:vp_z="744.09448 : 526.18109 : 1"
       inkscape:persp3d-origin="372.04724 : 350.78739 : 1"
       id="perspective10" />
    <inkscape:perspective
       id="perspective2873"
       inkscape:persp3d-origin="0.5 : 0.33333333 : 1"
       inkscape:vp_z="1 : 0.5 : 1"
       inkscape:vp_y="0 : 1000 : 0"
       inkscape:vp_x="0 : 0.5 : 1"
       sodipodi:type="inkscape:persp3d" />
  </defs>
  <sodipodi:namedview
     id="base"
     pagecolor="#000000"
     bordercolor="#666666"
     borderopacity="1.0"
     inkscape:pageopacity="1"
     inkscape:pageshadow="2"
     inkscape:zoom="1.979899"
     inkscape:cx="428.45279"
     inkscape:cy="810.19872"
     inkscape:document-units="px"
     inkscape:current-layer="layer2"
     showgrid="false"
     inkscape:snap-grids="true"
     inkscape:window-width="1436"
     inkscape:window-height="856"
     inkscape:window-x="4"
     inkscape:window-y="0"
     inkscape:window-maximized="0">
    <inkscape:grid
       type="xygrid"
       id="grid2850"
       empspacing="5"
       visible="true"
       enabled="true"
       snapvisiblegridlinesonly="true" />
  </sodipodi:namedview>
  <metadata
     id="metadata7">
    <rdf:RDF>
      <cc:Work
         rdf:about="">
        <dc:format>image/svg+xml</dc:format>
        <dc:type
           rdf:resource="http://purl.org/dc/dcmitype/StillImage" />
        <dc:title></dc:title>
      </cc:Work>
    </rdf:RDF>
  </metadata>
  <g
     inkscape:groupmode="layer"
     id="layer2"
     inkscape:label="Layer2" />
  <g
     inkscape:label="Layer 1"
     inkscape:groupmode="layer"
     id="layer1">
    <path
       sodipodi:type="arc"
       style="fill:#0066ff;fill-opacity:1;stroke:#0066ff;stroke-opacity:1"
       id="path2908"
       sodipodi:cx="175"
       sodipodi:cy="562.36218"
       sodipodi:rx="5"
       sodipodi:ry="5"
       d="m 180,562.36218 a 5,5 0 1 1 -10,0 5,5 0 1 1 10,0 z"
       transform="translate(181.71318,-388.93908)" />
    <path
       d="m 180,562.36218 a 5,5 0 1 1 -10,0 5,5 0 1 1 10,0 z"
       sodipodi:ry="5"
       sodipodi:rx="5"
       sodipodi:cy="562.36218"
       sodipodi:cx="175"
       id="path2910"
       style="fill:#0066ff;fill-opacity:1;stroke:#0066ff;stroke-opacity:1"
       sodipodi:type="arc"
       transform="translate(326.71318,-258.93908)" />
    <path
       style="fill:#0066ff;stroke:#0066ff;stroke-width:1px;stroke-linecap:butt;stroke-linejoin:miter;stroke-opacity:1"
       d="m 266.71318,278.4231 c 0,0 15,-30 15,-80 0,0 10.62102,0.0194 10,10 -5,80 40,60 40,0 0,0 0,-10 10,-10 0,0 0,125 0,125 -10,1e-5 -10,-70 -10,-95 -10,65 -40,70 -50,-10 0,0 5,60.00001 -15,60 z"
       id="path2941"
       sodipodi:nodetypes="cssssccsz" />
    <path
       sodipodi:nodetypes="ccsszzsssscz"
       id="path2951"
       d="m 351.71318,278.4231 c 0,0 0,-80 0,-80 0,0 11.10432,0.0612 10,10 -5,45 -9.26703,65 15,65 20,0 29.86567,-35.53731 25,-55 -4.86567,-19.46269 -35,-10 -35,-10 20,-25 40,0 40,0 10,-10 31.83772,-4.48683 35,5 5,15 -20,10 -10,0 0,0 -10,-20 -20,0 -8.06226,16.12452 15,85 -50,60 0,0 0,5 -10,5 z"
       style="fill:#0066ff;stroke:#0066ff;stroke-width:1px;stroke-linecap:butt;stroke-linejoin:miter;stroke-opacity:1" />
    <path
       sodipodi:nodetypes="cssssccsz"
       id="path2953"
       d="m 591.71318,198.4231 c 0,0 -15,30 -15,80 0,0 -10.62378,-0.0196 -10,-10 5,-80 -40,-60 -40,0 0,0 0,10 -10,10 0,0 0,-125 0,-125 10,-1e-5 10,70 10,95 10,-65 40,-70 50,10 0,0 -5,-60.00001 15,-60 z"
       style="fill:#0066ff;stroke:#0066ff;stroke-width:1px;stroke-linecap:butt;stroke-linejoin:miter;stroke-opacity:1" />
    <path
       style="fill:#0066ff;stroke:#0066ff;stroke-width:1px;stroke-linecap:butt;stroke-linejoin:miter;stroke-opacity:1"
       d="m 506.71318,198.4231 c 0,0 0,80 0,80 0,0 -11.10432,-0.0612 -10,-10 5,-45 9.26703,-65 -15,-65 -20,0 -29.86567,35.53731 -25,55 4.86567,19.46269 35,10 35,10 -20,25 -40,0 -40,0 -10,10 -31.83772,4.48683 -35,-5 -5,-15 20,-10 10,0 0,0 10,20 20,0 8.06226,-16.12452 -15,-85 50,-60 0,0 0,-5 10,-5 z"
       id="path2849"
       sodipodi:nodetypes="ccsszzsssscz" />
  </g>
</svg>
